 <svg  version="1.0" xmlns="http://www.w3.org/2000/svg"  width="108.000000pt" height="105.000000pt" viewBox="0 0 108.000000 105.000000"  preserveAspectRatio="xMidYMid meet">  <g transform="translate(0.000000,105.000000) scale(0.100000,-0.100000)" fill="#8a4ce6" stroke="none"> <path d="M491 838 c-41 -42 -74 -113 -77 -163 l-2 -40 -55 -2 c-30 0 -65 -7 -77 -13 -64 -34 -100 -115 -79 -178 23 -72 83 -110 120 -76 11 9 19 22 19 29 0 14 32 45 46 45 6 0 10 -17 10 -37 0 -21 3 -46 8 -55 6 -14 2 -20 -18 -28 -14 -5 -32 -21 -38 -36 -11 -24 -10 -29 15 -50 18 -15 41 -24 62 -24 24 0 45 -9 68 -30 43 -37 53 -37 97 0 24 21 45 30 70 30 39 0 80 32 80 62 0 17 -31 48 -48 48 -19 0 -23 17 -10 45 9 21 9 31 0 46 -16 25 -15 29 6 29 20 0 52 -29 52 -47 0 -14 34 -43 51 -43 25 0 70 44 83 83 38 111 -60 219 -180 200 l-34 -6 0 49 c0 59 -26 117 -70 162 -41 40 -59 40 -99 0z m96 -37 c50 -65 61 -112 39 -172 -21 -61 -13 -79 21 -47 31 29 116 32 158 4 56 -37 68 -124 25 -179 -25 -31 -60 -42 -60 -19 0 10 -9 32 -20 50 -17 28 -25 32 -62 32 -42 0 -78 -21 -78 -47 0 -8 11 -13 29 -13 24 0 29 -4 29 -26 0 -24 -3 -25 -34 -19 -40 7 -43 -4 -11 -40 14 -16 34 -26 54 -28 29 -2 33 -6 33 -29 0 -27 -2 -28 -47 -28 -41 0 -52 -5 -85 -37 l-38 -37 -38 37 c-33 32 -44 37 -85 37 -43 0 -47 2 -47 24 0 18 7 26 28 31 41 10 72 33 72 55 0 14 -6 18 -27 17 -24 -2 -28 2 -28 23 0 21 4 25 28 22 34 -4 37 20 5 42 -52 36 -138 0 -138 -59 0 -30 -3 -30 -41 -8 -63 37 -60 149 4 197 40 30 115 29 156 -2 38 -28 50 -12 26 34 -18 35 -18 67 -1 116 16 45 74 120 90 115 6 -2 26 -23 43 -46z"/> </g> </svg> 